<?xml version="1.0" standalone="no"?>
<!DOCTYPE svg PUBLIC "-//W3C//DTD SVG 20010904//EN"
 "http://www.w3.org/TR/2001/REC-SVG-20010904/DTD/svg10.dtd">
<svg version="1.0" xmlns="http://www.w3.org/2000/svg"
 width="997.000000pt" height="1280.000000pt" viewBox="0 0 997.000000 1280.000000"
 preserveAspectRatio="xMidYMid meet">
<g transform="translate(0.000000,1280.000000) scale(0.100000,-0.100000)"
fill="#000000" stroke="none">
<path d="M3060 12777 c-36 -13 -261 -136 -500 -274 -239 -138 -523 -301 -632
-362 -212 -120 -270 -167 -313 -255 -31 -63 -41 -155 -25 -216 17 -64 541
-957 1317 -2245 454 -754 424 -706 475 -756 56 -55 111 -85 188 -105 112 -29
116 -27 649 280 262 150 550 315 641 367 181 102 233 144 273 217 53 97 68
204 44 297 -9 35 -281 493 -881 1485 -477 789 -879 1450 -892 1467 -31 41 -96
79 -176 104 -79 24 -89 23 -168 -4z"/>
<path d="M1193 11430 c-567 -163 -934 -586 -1098 -1270 -42 -174 -77 -461 -92
-750 -8 -159 32 -650 78 -960 294 -1974 1462 -4455 2918 -6195 375 -448 809
-884 1196 -1201 592 -486 1190 -812 1750 -954 196 -50 538 -100 686 -100 72 0
108 4 344 36 211 29 426 91 632 181 84 37 104 49 100 64 -7 27 -820 1449 -912
1594 -95 151 -419 680 -655 1070 -90 149 -167 274 -171 279 -4 5 -44 0 -91
-12 -348 -88 -716 -34 -1113 163 -513 253 -1001 710 -1437 1345 -152 221 -296
471 -364 630 -187 441 -315 904 -370 1345 -19 155 -22 508 -5 640 49 386 173
697 380 955 l60 75 -18 30 c-225 374 -397 683 -921 1655 -472 875 -766 1401
-786 1406 -5 2 -55 -10 -111 -26z"/>
<path d="M7690 4676 c-19 -8 -91 -46 -160 -86 -69 -40 -351 -203 -628 -361
-276 -159 -518 -300 -536 -314 -53 -41 -104 -122 -122 -197 -28 -114 -21 -132
202 -526 694 -1225 1515 -2636 1562 -2685 15 -15 56 -42 92 -60 59 -29 73 -32
160 -32 l95 0 125 72 c799 457 1171 672 1199 692 41 29 92 109 115 177 20 62
23 187 6 240 -7 21 -108 200 -225 399 -117 198 -387 659 -600 1025 -982 1685
-931 1604 -1049 1649 -65 24 -179 28 -236 7z"/>
</g>
</svg>
